<svg version="1.0" id="Layer_1" xmlns="http://www.w3.org/2000/svg" x="0" y="0" viewBox="0 0 589.1 135.3" xml:space="preserve"><g id="Layer_1_1_"><circle fill="#FFF" cx="318.2" cy="48.5" r="12.6"/><path fill="#2F94AC" d="M350.2 34.3c-12.9-12.8-33.8-12.8-46.7 0-12.9 12.8-12.9 33.5 0 46.3s33.8 12.8 46.7 0c12.9-12.8 12.9-33.5 0-46.3M325.5 56c-4.3 4.2-11.2 4.2-15.4 0-4.3-4.2-4.3-11 0-15.3 4.3-4.2 11.2-4.2 15.4 0 4.2 4.3 4.2 11.1 0 15.3"/><path d="M1.8 2.5h81.6v12H15.5v33.2h60.7v11.8H15.5v40.6h70.2v12.1H1.8zm106 120.3c4.9 0 8.8-1 11.7-3 2.9-2 5.7-5.8 8.3-11.4l.7-1.7-37.9-77h13.8L129 81.4l5.6 12.9 5.6-13.4 22.4-51.1h13.5l-37.9 84.5c-2 4.6-4.3 8.4-6.8 11.4s-5.2 5.1-8.1 6.4c-2.9 1.2-5.4 2-7.6 2.4s-4.8.6-7.9.6v-12.3zm137.8-57.2c-.8-7.6-3.8-13.8-9-18.7s-11.3-7.4-18.4-7.4c-6.9 0-13 2.5-18.3 7.5s-8.4 11.2-9.4 18.6h55.1zm-56.4-25c8.1-8.4 17.9-12.6 29.6-12.6 10.9 0 20.3 4.2 28.2 12.5 7.9 8.4 11.8 18.3 11.8 29.8l-.3 5.4h-67.7c1 7.9 4.4 14.3 10.1 19.1 5.7 4.8 12.4 7.3 20.2 7.3 10 0 18.6-3.2 25.6-9.5l6.1 9.3c-9.5 7.9-20 11.8-31.8 11.8-12.2 0-22.6-4-31.1-12s-12.8-18.3-12.8-30.8c0-11.7 4-21.8 12.1-30.3M400 29.7h13.5v49.1c0 15.6 7.7 23.4 23.1 23.4 7.4 0 13.5-2.3 18.3-6.9s7.2-10.9 7.2-18.8V29.7h13.5v82.4H462V100c-6.4 9.6-15.5 13.8-28.4 13.8-11 0-19.9-3.1-25.6-9.2s-8-14.1-8-23.9v-51zm157.8 35.9c-.8-7.6-3.8-13.8-9-18.7s-11.3-7.4-18.4-7.4c-6.9 0-13 2.5-18.3 7.5-5.2 5-8.4 11.2-9.4 18.6h55.1zm-56.4-25c8.1-8.4 18-12.6 29.6-12.6 10.9 0 20.3 4.2 28.2 12.5C567 48.9 571 58.8 571 70.3l-.4 5.4H503c1 7.9 4.4 14.3 10.1 19.1 5.7 4.8 12.4 7.3 20.2 7.3 10 0 18.6-3.2 25.6-9.5l6.1 9.3c-9.5 7.9-20 11.8-31.8 11.8-12.2 0-22.6-4-31.1-12s-12.8-18.3-12.8-30.8c0-11.7 4-21.8 12.1-30.3M295.3 88.7c-17.4-17.3-17.4-45.4 0-62.6 8.4-8.4 19.7-13 31.6-13s23.2 4.6 31.6 13c8.5 8.4 13.1 19.5 13.1 31.3s-4.7 22.9-13.1 31.3-19.7 13-31.6 13c-12 0-23.2-4.6-31.6-13m93.9 21.6l-17.8-17.6c8.1-10 12.5-22.2 12.5-35.2 0-15.1-5.9-29.3-16.7-39.9C356.4 6.8 342.1.9 326.9.9s-29.6 5.9-40.3 16.6c-22.2 22-22.2 57.9 0 79.9 10.8 10.7 25.1 16.5 40.3 16.5 13 0 25.3-4.3 35.3-12.2l17.8 17.7 9.2-9.1zm181-74.6c-2.2-2.2-3.3-4.9-3.3-8.1s1.1-5.9 3.3-8.1 4.9-3.3 8-3.3c3.2 0 5.9 1.1 8.1 3.3 2.2 2.2 3.3 4.9 3.3 8.1s-1.1 5.9-3.3 8.1-4.9 3.3-8.1 3.3c-3.1 0-5.8-1.1-8-3.3zm14.5-1.6c1.8-1.8 2.6-3.9 2.6-6.5s-.9-4.7-2.6-6.5c-1.8-1.8-3.9-2.6-6.5-2.6-2.5 0-4.7.9-6.5 2.6-1.8 1.8-2.6 3.9-2.6 6.5 0 2.5.9 4.7 2.6 6.5 1.8 1.8 3.9 2.7 6.5 2.7s4.7-.9 6.5-2.7zm-8.7-1.3h-2.1V21.9h5.4c1.1 0 2 .3 2.7 1 .7.6 1.1 1.4 1.1 2.4 0 .9-.2 1.6-.7 2.1-.4.6-1.1.9-1.9 1.1l3 4.3h-2.6l-2.8-4H576v4zm0-8.9V27h2.7c.7 0 1.2-.1 1.5-.4s.5-.7.5-1.2-.2-.9-.5-1.1-.8-.4-1.5-.4H576z"/></g></svg>